<svg xmlns="http://www.w3.org/2000/svg" width="364" height="59" viewBox="0 0 364 59" fill="none">
<path d="M23.9373 38.3198L23.9349 38.3403L23.9196 38.3315L23.9373 38.3198ZM6.88258 37.9028L7.17828 38.5969C8.32837 41.2987 9.96871 43.7643 12.0163 45.8691L12.3902 46.253L23.9203 38.3303C22.0339 37.2433 19.9513 36.5398 17.7921 36.2601C15.633 35.9803 13.4399 36.1299 11.3387 36.7001L6.88258 37.9028ZM23.9356 38.3391L22.8907 52.2899L23.4104 52.4198C26.2595 53.1303 29.2157 53.3074 32.1291 52.9417L32.8778 52.8481L31.6744 48.3929C31.1098 46.2903 30.1355 44.3197 28.8074 42.5946C27.4793 40.8695 25.8233 39.4236 23.9349 38.3403L23.9356 38.3391ZM20.47 6.88182L19.777 7.17815C17.0746 8.32743 14.6086 9.96759 12.5038 12.0155L12.1199 12.3894L20.0514 23.9045C21.1346 22.0193 21.8354 19.939 22.1136 17.7827C22.3918 15.6264 22.242 13.4363 21.6728 11.338L20.47 6.88182ZM6.08314 22.89L5.95334 23.4097C5.24252 26.2592 5.06604 29.2156 5.43268 32.1292L5.52522 32.8773L9.9813 31.6745C12.0808 31.1109 14.0486 30.1385 15.7719 28.8133C17.4953 27.488 18.9404 25.8358 20.0244 23.9515L6.08314 22.89ZM20.0514 23.9045L20.0244 23.9515L20.0854 23.9569L20.0514 23.9045ZM36.6998 47.0357L37.9026 51.4918L38.5967 51.196C41.2984 50.0462 43.764 48.4056 45.8687 46.358L46.2525 45.9843L38.3339 34.4468C37.2456 36.3343 36.541 38.418 36.2608 40.5784C35.9806 42.7392 36.1301 44.9336 36.7008 47.0362L36.6998 47.0357ZM52.4192 34.9638C53.1297 32.1146 53.3066 29.1586 52.941 26.2449L52.8474 25.4963L48.3923 26.6997C46.2882 27.2647 44.3162 28.2399 42.5901 29.5695C40.8637 30.8989 39.4175 32.5565 38.3339 34.4468L52.2893 35.4837L52.4192 34.9638ZM34.454 20.0428L34.4388 20.034L34.4382 20.0541L34.454 20.0428ZM51.4917 20.4704L51.1953 19.7774C50.0461 17.0749 48.406 14.6089 46.3579 12.504L45.9843 12.1202L34.454 20.0428C36.341 21.1293 38.4236 21.8324 40.5828 22.112C42.742 22.3916 44.9352 22.242 47.0363 21.6719L51.4917 20.4704ZM34.4388 20.034L35.4838 6.08319L34.9639 5.95328C32.1145 5.24252 29.1581 5.06594 26.2445 5.43252L25.4965 5.5251L26.6993 9.98127C27.2642 12.0838 28.2386 14.0542 29.5667 15.7793C30.8949 17.5044 32.5506 18.9503 34.4388 20.034ZM34.4394 20.0548L34.4187 20.0663C30.0463 22.5737 25.1024 23.9143 20.0623 23.9591L20.0745 23.9787C22.5823 28.3511 23.923 33.2951 23.9673 38.3354L23.9862 38.3244C28.3583 35.816 33.3025 34.4754 38.3427 34.4315L38.3323 34.4115C35.8239 30.0397 34.483 25.0959 34.4388 20.056L34.4394 20.0548Z" fill="url(#paint0_linear_6081_23)"/>
<path d="M60.975 31.7485H64.8463C64.9228 32.3985 65.2191 32.9912 65.7353 33.5265C66.2706 34.0426 66.9684 34.4537 67.8287 34.7596C68.689 35.0463 69.6544 35.1897 70.725 35.1897C71.7 35.1897 72.503 35.0846 73.1338 34.8743C73.7647 34.664 74.2331 34.3676 74.539 33.9853C74.8449 33.6029 74.9978 33.1441 74.9978 32.6088C74.9978 32.0926 74.8066 31.7007 74.4243 31.4331C74.0419 31.1463 73.4397 30.9169 72.6177 30.7448C71.7956 30.5537 70.7155 30.3625 69.3772 30.1713C68.3257 30.0184 67.3316 29.8081 66.3949 29.5404C65.4581 29.2537 64.6265 28.8904 63.9 28.4507C63.1927 28.011 62.6287 27.4757 62.2081 26.8448C61.8066 26.1948 61.6059 25.4301 61.6059 24.5507C61.6059 23.461 61.9118 22.5051 62.5235 21.6831C63.1544 20.861 64.0816 20.2206 65.3052 19.7617C66.5287 19.3029 68.0294 19.0735 69.8074 19.0735C72.4838 19.0735 74.539 19.647 75.9728 20.7941C77.4258 21.922 78.1331 23.4801 78.0949 25.4684H74.3669C74.2905 24.3404 73.8125 23.5279 72.9331 23.0309C72.0728 22.5338 70.9831 22.2853 69.664 22.2853C68.4405 22.2853 67.4272 22.4669 66.6243 22.8301C65.8404 23.1934 65.4485 23.8147 65.4485 24.6941C65.4485 25.0382 65.5441 25.3441 65.7353 25.6118C65.9265 25.8603 66.2515 26.0801 66.7103 26.2713C67.1691 26.4625 67.7905 26.6441 68.5743 26.8162C69.3581 26.9882 70.3331 27.1603 71.4993 27.3323C72.589 27.4853 73.5735 27.6956 74.453 27.9632C75.3515 28.2118 76.1162 28.5463 76.7471 28.9669C77.3971 29.3684 77.8941 29.8845 78.2383 30.5154C78.5824 31.1463 78.7544 31.9206 78.7544 32.8382C78.7544 33.9662 78.4581 34.9507 77.8655 35.7919C77.2919 36.614 76.3934 37.2544 75.1699 37.7132C73.9655 38.1721 72.3978 38.4015 70.4669 38.4015C69.0905 38.4015 67.8765 38.2581 66.825 37.9713C65.7735 37.6654 64.8654 37.264 64.1007 36.7669C63.336 36.2699 62.7147 35.725 62.2368 35.1323C61.7588 34.5397 61.4147 33.9471 61.2044 33.3544C61.0132 32.7618 60.9368 32.2265 60.975 31.7485ZM92.0126 38.3441C90.7508 38.3441 89.6707 38.1243 88.7722 37.6846C87.8928 37.2257 87.1758 36.6331 86.6214 35.9066C86.067 35.161 85.656 34.3485 85.3883 33.4691C85.1207 32.5897 84.9869 31.7294 84.9869 30.8882C84.9869 29.8368 85.1111 28.8618 85.3597 27.9632C85.6273 27.0647 86.0383 26.2809 86.5928 25.6118C87.1472 24.9235 87.8641 24.3882 88.7435 24.0059C89.642 23.6235 90.7317 23.4323 92.0126 23.4323C93.4464 23.4323 94.7369 23.7478 95.8839 24.3787C97.031 25.0095 97.9391 25.889 98.6082 27.0169C99.2964 28.1257 99.6406 29.4162 99.6406 30.8882C99.6406 32.3985 99.2964 33.7176 98.6082 34.8456C97.92 35.9544 97.0023 36.8147 95.8553 37.4265C94.7082 38.0382 93.4273 38.3441 92.0126 38.3441ZM90.8082 35.4478C91.8214 35.4478 92.7008 35.2566 93.4464 34.8743C94.2111 34.4919 94.7942 33.9662 95.1957 33.2971C95.6163 32.6088 95.8266 31.8059 95.8266 30.8882C95.8266 29.5118 95.3869 28.4029 94.5075 27.5618C93.6472 26.7206 92.4141 26.3 90.8082 26.3C89.795 26.3 88.8678 26.4816 88.0266 26.8448C87.2045 27.2081 86.5545 27.7338 86.0766 28.422C85.5986 29.0912 85.3597 29.9132 85.3597 30.8882C85.3597 31.8059 85.5795 32.6088 86.0192 33.2971C86.4589 33.9662 87.0898 34.4919 87.9119 34.8743C88.7339 35.2566 89.6994 35.4478 90.8082 35.4478ZM81.6317 23.7478H85.1876L85.3597 27.5331V43.7353H81.6317V23.7478ZM115.373 33.2684H118.987C118.834 34.2434 118.423 35.1132 117.754 35.8779C117.104 36.6426 116.215 37.2449 115.087 37.6846C113.959 38.1243 112.582 38.3441 110.957 38.3441C109.141 38.3441 107.535 38.0574 106.14 37.4838C104.744 36.8912 103.654 36.0404 102.87 34.9316C102.087 33.8228 101.695 32.4846 101.695 30.9169C101.695 29.3493 102.077 28.011 102.842 26.9022C103.607 25.7743 104.668 24.914 106.025 24.3213C107.401 23.7287 109.007 23.4323 110.843 23.4323C112.716 23.4323 114.274 23.7287 115.517 24.3213C116.759 24.914 117.677 25.8125 118.27 27.0169C118.882 28.2022 119.14 29.722 119.044 31.5765H105.451C105.547 32.3029 105.815 32.9625 106.254 33.5551C106.713 34.1478 107.325 34.6162 108.09 34.9603C108.873 35.3044 109.801 35.4765 110.871 35.4765C112.057 35.4765 113.041 35.2757 113.825 34.8743C114.628 34.4537 115.144 33.9184 115.373 33.2684ZM110.67 26.2713C109.294 26.2713 108.176 26.5772 107.315 27.189C106.455 27.7816 105.901 28.5176 105.652 29.397H115.345C115.249 28.4412 114.79 27.686 113.968 27.1316C113.165 26.5581 112.066 26.2713 110.67 26.2713ZM138.737 32.3794C138.642 33.6221 138.24 34.6926 137.533 35.5912C136.845 36.4897 135.889 37.1779 134.665 37.6559C133.442 38.1147 131.989 38.3441 130.306 38.3441C128.547 38.3441 126.97 38.0669 125.575 37.5125C124.198 36.939 123.108 36.1074 122.306 35.0176C121.522 33.9088 121.13 32.5419 121.13 30.9169C121.13 29.2919 121.522 27.925 122.306 26.8162C123.108 25.7073 124.198 24.8662 125.575 24.2926C126.97 23.7191 128.547 23.4323 130.306 23.4323C131.989 23.4323 133.432 23.6713 134.636 24.1492C135.841 24.6081 136.787 25.2772 137.475 26.1566C138.183 27.036 138.594 28.097 138.708 29.3397H135.296C134.971 28.3838 134.369 27.6382 133.489 27.1029C132.61 26.5676 131.549 26.3 130.306 26.3C129.312 26.3 128.404 26.472 127.582 26.8162C126.779 27.1603 126.129 27.6765 125.632 28.3647C125.154 29.0338 124.915 29.8845 124.915 30.9169C124.915 31.9301 125.154 32.7809 125.632 33.4691C126.11 34.1382 126.76 34.6448 127.582 34.989C128.404 35.314 129.312 35.4765 130.306 35.4765C131.645 35.4765 132.734 35.2088 133.575 34.6735C134.436 34.1382 135.019 33.3735 135.325 32.3794H138.737ZM140.473 23.7478H151.543V26.6441H140.473V23.7478ZM144.144 19.8478H147.872V38H144.144V19.8478ZM153.911 23.7478H157.639V38H153.911V23.7478ZM163.116 26.8162C162.046 26.8162 161.118 27.0265 160.335 27.447C159.551 27.8485 158.92 28.3456 158.442 28.9382C157.964 29.5309 157.629 30.1044 157.438 30.6588L157.41 29.0816C157.429 28.8522 157.505 28.5176 157.639 28.0779C157.773 27.6191 157.974 27.1316 158.241 26.6154C158.509 26.0801 158.863 25.5735 159.302 25.0956C159.742 24.5985 160.277 24.197 160.908 23.8912C161.539 23.5853 162.275 23.4323 163.116 23.4323V26.8162ZM172.361 38.3154C170.946 38.3154 169.655 38.0096 168.489 37.3978C167.342 36.7669 166.425 35.8971 165.736 34.7882C165.067 33.6603 164.733 32.3603 164.733 30.8882C164.733 29.3779 165.077 28.0684 165.765 26.9595C166.453 25.8507 167.38 24.9904 168.547 24.3787C169.732 23.7478 171.07 23.4323 172.561 23.4323C174.205 23.4323 175.525 23.7669 176.519 24.436C177.532 25.086 178.268 25.975 178.727 27.1029C179.186 28.2309 179.415 29.4926 179.415 30.8882C179.415 31.7294 179.281 32.5897 179.014 33.4691C178.746 34.3294 178.335 35.1323 177.78 35.8779C177.226 36.6044 176.5 37.1971 175.601 37.6559C174.702 38.0956 173.622 38.3154 172.361 38.3154ZM173.565 35.4478C174.693 35.4478 175.668 35.2566 176.49 34.8743C177.312 34.4919 177.943 33.9566 178.383 33.2684C178.822 32.5801 179.042 31.7868 179.042 30.8882C179.042 29.9132 178.813 29.0912 178.354 28.422C177.914 27.7338 177.283 27.2176 176.461 26.8735C175.658 26.5103 174.693 26.3287 173.565 26.3287C171.978 26.3287 170.745 26.7493 169.866 27.5904C168.986 28.4125 168.547 29.5118 168.547 30.8882C168.547 31.8059 168.757 32.6088 169.177 33.2971C169.598 33.9662 170.181 34.4919 170.927 34.8743C171.691 35.2566 172.571 35.4478 173.565 35.4478ZM179.042 23.7478H182.77V38H179.3C179.3 38 179.272 37.8184 179.214 37.4551C179.176 37.0728 179.138 36.5949 179.1 36.0213C179.061 35.4478 179.042 34.8838 179.042 34.3294V23.7478ZM190.766 19.4463H210.323V22.6294H190.766V19.4463ZM198.652 22.2279H202.466V38H198.652V22.2279ZM223.274 33.2684H226.888C226.735 34.2434 226.324 35.1132 225.655 35.8779C225.005 36.6426 224.116 37.2449 222.988 37.6846C221.86 38.1243 220.483 38.3441 218.858 38.3441C217.042 38.3441 215.436 38.0574 214.041 37.4838C212.645 36.8912 211.555 36.0404 210.771 34.9316C209.988 33.8228 209.596 32.4846 209.596 30.9169C209.596 29.3493 209.978 28.011 210.743 26.9022C211.507 25.7743 212.568 24.914 213.926 24.3213C215.302 23.7287 216.908 23.4323 218.743 23.4323C220.617 23.4323 222.175 23.7287 223.418 24.3213C224.66 24.914 225.578 25.8125 226.171 27.0169C226.782 28.2022 227.041 29.722 226.945 31.5765H213.352C213.448 32.3029 213.716 32.9625 214.155 33.5551C214.614 34.1478 215.226 34.6162 215.991 34.9603C216.774 35.3044 217.702 35.4765 218.772 35.4765C219.957 35.4765 220.942 35.2757 221.726 34.8743C222.529 34.4537 223.045 33.9184 223.274 33.2684ZM218.571 26.2713C217.195 26.2713 216.077 26.5772 215.216 27.189C214.356 27.7816 213.802 28.5176 213.553 29.397H223.246C223.15 28.4412 222.691 27.686 221.869 27.1316C221.066 26.5581 219.967 26.2713 218.571 26.2713ZM246.638 32.3794C246.543 33.6221 246.141 34.6926 245.434 35.5912C244.745 36.4897 243.79 37.1779 242.566 37.6559C241.343 38.1147 239.89 38.3441 238.207 38.3441C236.448 38.3441 234.871 38.0669 233.476 37.5125C232.099 36.939 231.009 36.1074 230.206 35.0176C229.423 33.9088 229.031 32.5419 229.031 30.9169C229.031 29.2919 229.423 27.925 230.206 26.8162C231.009 25.7073 232.099 24.8662 233.476 24.2926C234.871 23.7191 236.448 23.4323 238.207 23.4323C239.89 23.4323 241.333 23.6713 242.537 24.1492C243.742 24.6081 244.688 25.2772 245.376 26.1566C246.084 27.036 246.495 28.097 246.609 29.3397H243.197C242.872 28.3838 242.27 27.6382 241.39 27.1029C240.511 26.5676 239.45 26.3 238.207 26.3C237.213 26.3 236.305 26.472 235.483 26.8162C234.68 27.1603 234.03 27.6765 233.533 28.3647C233.055 29.0338 232.816 29.8845 232.816 30.9169C232.816 31.9301 233.055 32.7809 233.533 33.4691C234.011 34.1382 234.661 34.6448 235.483 34.989C236.305 35.314 237.213 35.4765 238.207 35.4765C239.545 35.4765 240.635 35.2088 241.476 34.6735C242.337 34.1382 242.92 33.3735 243.226 32.3794H246.638ZM249.378 23.7478H253.106V38H249.378V23.7478ZM259.73 23.4323C260.61 23.4323 261.422 23.547 262.168 23.7765C262.913 24.0059 263.563 24.3595 264.118 24.8375C264.672 25.3154 265.102 25.9272 265.408 26.6728C265.714 27.3993 265.867 28.2691 265.867 29.2823V38H262.139V29.9419C262.139 28.7375 261.843 27.8581 261.25 27.3037C260.677 26.7301 259.73 26.4434 258.411 26.4434C257.417 26.4434 256.518 26.6345 255.716 27.0169C254.913 27.3993 254.263 27.8868 253.766 28.4794C253.268 29.0529 252.982 29.6551 252.905 30.286L252.877 28.8235C252.972 28.1544 253.192 27.5044 253.536 26.8735C253.88 26.2426 254.339 25.6691 254.913 25.1529C255.505 24.6176 256.203 24.197 257.006 23.8912C257.809 23.5853 258.717 23.4323 259.73 23.4323ZM277.663 38.3441C275.866 38.3441 274.28 38.0574 272.903 37.4838C271.546 36.9103 270.485 36.0787 269.72 34.989C268.955 33.8801 268.573 32.5228 268.573 30.9169C268.573 29.311 268.955 27.9537 269.72 26.8448C270.485 25.7169 271.546 24.8662 272.903 24.2926C274.28 23.7191 275.866 23.4323 277.663 23.4323C279.46 23.4323 281.028 23.7191 282.366 24.2926C283.724 24.8662 284.785 25.7169 285.549 26.8448C286.314 27.9537 286.696 29.311 286.696 30.9169C286.696 32.5228 286.314 33.8801 285.549 34.989C284.785 36.0787 283.724 36.9103 282.366 37.4838C281.028 38.0574 279.46 38.3441 277.663 38.3441ZM277.663 35.4765C278.658 35.4765 279.546 35.3044 280.33 34.9603C281.133 34.5971 281.764 34.0809 282.223 33.4118C282.682 32.7235 282.911 31.8919 282.911 30.9169C282.911 29.9419 282.682 29.1103 282.223 28.422C281.764 27.7147 281.143 27.1794 280.359 26.8162C279.575 26.4529 278.677 26.2713 277.663 26.2713C276.669 26.2713 275.771 26.4529 274.968 26.8162C274.165 27.1794 273.524 27.7051 273.046 28.3934C272.588 29.0816 272.358 29.9228 272.358 30.9169C272.358 31.8919 272.588 32.7235 273.046 33.4118C273.505 34.0809 274.136 34.5971 274.939 34.9603C275.742 35.3044 276.65 35.4765 277.663 35.4765ZM289.739 18.0125H293.467V38H289.739V18.0125ZM305.64 38.3441C303.843 38.3441 302.256 38.0574 300.879 37.4838C299.522 36.9103 298.461 36.0787 297.696 34.989C296.932 33.8801 296.549 32.5228 296.549 30.9169C296.549 29.311 296.932 27.9537 297.696 26.8448C298.461 25.7169 299.522 24.8662 300.879 24.2926C302.256 23.7191 303.843 23.4323 305.64 23.4323C307.437 23.4323 309.004 23.7191 310.343 24.2926C311.7 24.8662 312.761 25.7169 313.526 26.8448C314.291 27.9537 314.673 29.311 314.673 30.9169C314.673 32.5228 314.291 33.8801 313.526 34.989C312.761 36.0787 311.7 36.9103 310.343 37.4838C309.004 38.0574 307.437 38.3441 305.64 38.3441ZM305.64 35.4765C306.634 35.4765 307.523 35.3044 308.307 34.9603C309.11 34.5971 309.741 34.0809 310.199 33.4118C310.658 32.7235 310.888 31.8919 310.888 30.9169C310.888 29.9419 310.658 29.1103 310.199 28.422C309.741 27.7147 309.119 27.1794 308.335 26.8162C307.552 26.4529 306.653 26.2713 305.64 26.2713C304.646 26.2713 303.747 26.4529 302.944 26.8162C302.141 27.1794 301.501 27.7051 301.023 28.3934C300.564 29.0816 300.335 29.9228 300.335 30.9169C300.335 31.8919 300.564 32.7235 301.023 33.4118C301.482 34.0809 302.113 34.5971 302.916 34.9603C303.718 35.3044 304.627 35.4765 305.64 35.4765ZM324.541 35.8206C322.992 35.8206 321.625 35.5912 320.44 35.1323C319.274 34.6544 318.366 33.9566 317.716 33.039C317.065 32.1213 316.74 31.0125 316.74 29.7125C316.74 28.4316 317.056 27.3228 317.687 26.386C318.318 25.4493 319.216 24.7228 320.382 24.2066C321.568 23.6904 322.954 23.4323 324.541 23.4323C324.98 23.4323 325.401 23.461 325.802 23.5184C326.223 23.5757 326.634 23.6522 327.035 23.7478L334.233 23.7765V26.5868C333.258 26.6059 332.264 26.4912 331.251 26.2426C330.257 25.975 329.377 25.6882 328.613 25.3823L328.527 25.1816C329.177 25.4875 329.788 25.8698 330.362 26.3287C330.935 26.7684 331.394 27.2845 331.738 27.8772C332.102 28.4507 332.283 29.1198 332.283 29.8845C332.283 31.1272 331.968 32.1978 331.337 33.0963C330.706 33.9757 329.807 34.6544 328.641 35.1323C327.494 35.5912 326.127 35.8206 324.541 35.8206ZM329.329 43.8787V43.1904C329.329 42.311 329.043 41.6993 328.469 41.3552C327.915 41.011 327.15 40.839 326.175 40.839H321.73C320.87 40.839 320.143 40.7721 319.551 40.6382C318.977 40.5044 318.518 40.3132 318.174 40.0647C317.83 39.8162 317.582 39.5199 317.429 39.1757C317.276 38.8507 317.199 38.4971 317.199 38.1147C317.199 37.35 317.448 36.7765 317.945 36.3941C318.442 35.9926 319.111 35.725 319.952 35.5912C320.793 35.4573 321.721 35.4287 322.734 35.5051L324.541 35.8206C323.336 35.8588 322.438 35.964 321.845 36.136C321.271 36.289 320.985 36.6044 320.985 37.0824C320.985 37.3691 321.099 37.5985 321.329 37.7706C321.558 37.9235 321.883 38 322.304 38H326.978C328.259 38 329.349 38.1338 330.247 38.4015C331.165 38.6882 331.863 39.1566 332.341 39.8066C332.818 40.4757 333.057 41.3838 333.057 42.5309V43.8787H329.329ZM324.541 33.125C325.363 33.125 326.079 32.9912 326.691 32.7235C327.322 32.4559 327.81 32.0735 328.154 31.5765C328.498 31.0603 328.67 30.4485 328.67 29.7412C328.67 29.0147 328.498 28.3934 328.154 27.8772C327.81 27.361 327.332 26.9691 326.72 26.7015C326.108 26.4147 325.382 26.2713 324.541 26.2713C323.718 26.2713 322.992 26.4147 322.361 26.7015C321.73 26.9691 321.243 27.361 320.899 27.8772C320.554 28.3934 320.382 29.0147 320.382 29.7412C320.382 30.4485 320.554 31.0603 320.899 31.5765C321.243 32.0735 321.721 32.4559 322.332 32.7235C322.963 32.9912 323.699 33.125 324.541 33.125ZM340.941 17.4963V20.7654H336.61V17.4963H340.941ZM336.897 23.7478H340.625V38H336.897V23.7478ZM351.281 38.3154C349.866 38.3154 348.576 38.0096 347.409 37.3978C346.262 36.7669 345.345 35.8971 344.656 34.7882C343.987 33.6603 343.653 32.3603 343.653 30.8882C343.653 29.3779 343.997 28.0684 344.685 26.9595C345.373 25.8507 346.301 24.9904 347.467 24.3787C348.652 23.7478 349.99 23.4323 351.481 23.4323C353.126 23.4323 354.445 23.7669 355.439 24.436C356.452 25.086 357.188 25.975 357.647 27.1029C358.106 28.2309 358.335 29.4926 358.335 30.8882C358.335 31.7294 358.201 32.5897 357.934 33.4691C357.666 34.3294 357.255 35.1323 356.701 35.8779C356.146 36.6044 355.42 37.1971 354.521 37.6559C353.623 38.0956 352.542 38.3154 351.281 38.3154ZM352.485 35.4478C353.613 35.4478 354.588 35.2566 355.41 34.8743C356.232 34.4919 356.863 33.9566 357.303 33.2684C357.742 32.5801 357.962 31.7868 357.962 30.8882C357.962 29.9132 357.733 29.0912 357.274 28.422C356.834 27.7338 356.203 27.2176 355.381 26.8735C354.578 26.5103 353.613 26.3287 352.485 26.3287C350.898 26.3287 349.665 26.7493 348.786 27.5904C347.906 28.4125 347.467 29.5118 347.467 30.8882C347.467 31.8059 347.677 32.6088 348.098 33.2971C348.518 33.9662 349.101 34.4919 349.847 34.8743C350.612 35.2566 351.491 35.4478 352.485 35.4478ZM357.962 23.7478H361.69V38H358.22C358.22 38 358.192 37.8184 358.134 37.4551C358.096 37.0728 358.058 36.5949 358.02 36.0213C357.981 35.4478 357.962 34.8838 357.962 34.3294V23.7478Z" fill="#FFFFFF"/>
<defs>
<linearGradient id="paint0_linear_6081_23" x1="52.17" y1="22.9832" x2="-1.15078" y2="32.7015" gradientUnits="userSpaceOnUse">
<stop stop-color="#0147FF"/>
<stop offset="1" stop-color="#0147FF" stop-opacity="0"/>
</linearGradient>
</defs>
</svg>