<svg width="411" height="158" viewBox="0 0 411 158" fill="none" xmlns="http://www.w3.org/2000/svg">
<path d="M159.549 104.441H149.178C148.446 53.4813 107.83 12.1875 57.1415 10.3709V3.05176e-05C113.565 1.81663 158.831 47.7604 159.549 104.441Z" fill="#9CC748"/>
<path d="M141.559 104.441H131.907C131.188 63.0388 98.2862 29.4588 57.1415 27.6558V17.9898C103.614 19.8064 140.827 57.6839 141.559 104.441Z" fill="#9CC748"/>
<path d="M122.526 104.441H111.545C110.813 74.2773 87.0341 49.821 57.1415 48.0586V37.0506C93.1075 38.8401 121.807 68.2175 122.526 104.441Z" fill="#9CC748"/>
<path d="M96.9035 90.0844C97.0526 90.4776 97.1882 90.8572 97.3102 91.2503H97.3237C97.1882 90.8572 97.0526 90.464 96.9035 90.0844ZM96.3205 88.5796C96.3612 88.6881 96.4019 88.8101 96.4425 88.9186H96.4561C96.4154 88.8101 96.3612 88.6881 96.3205 88.5796ZM95.9681 87.7798C94.7751 88.1458 93.5007 88.3356 92.1857 88.3356C91.6435 88.3356 91.1147 88.3085 90.5996 88.2272C90.6945 88.2543 90.8029 88.2678 90.8978 88.2678C91.0063 88.295 91.1012 88.295 91.2096 88.3085C91.535 88.3356 91.8739 88.3492 92.1993 88.3492C93.5143 88.3492 94.7751 88.1594 95.9681 87.7934V87.7798ZM87.4138 87.4273H87.4002C87.4002 87.4273 87.4002 87.4409 87.4138 87.4409C87.5629 87.4951 87.712 87.5493 87.8611 87.59C87.712 87.5358 87.5629 87.4816 87.4138 87.4273ZM86.5326 87.0342C86.2479 86.8986 85.9767 86.7495 85.7056 86.5868C86.2479 86.9257 86.8037 87.1969 87.4002 87.4273C87.102 87.3053 86.8173 87.1697 86.5326 87.0342ZM84.9058 86.0852H84.8922L84.9058 86.0988C85.1633 86.275 85.4209 86.4377 85.6921 86.5868C85.4209 86.4241 85.1633 86.2614 84.9058 86.0852ZM84.1466 85.5294H84.133C84.133 85.5294 84.133 85.5294 84.1466 85.5294C84.3906 85.7192 84.6346 85.909 84.8922 86.0717C84.6346 85.8819 84.3906 85.7056 84.1466 85.5158V85.5294ZM81.5708 82.8045C81.7471 83.0621 81.9233 83.3061 82.1266 83.5501H82.1402C81.9504 83.3061 81.7606 83.0621 81.5708 82.8045ZM80.5947 81.1912C80.7439 81.4759 80.893 81.7471 81.0421 82.0046H81.0557C80.893 81.7335 80.7439 81.4624 80.5947 81.1912ZM80.2016 80.3236C80.3236 80.6083 80.4456 80.893 80.5812 81.1777H80.5947C80.4592 80.893 80.3236 80.6083 80.2016 80.3236ZM80.188 80.31C78.6154 80.0796 77.0158 79.9711 75.3754 79.9711C74.7789 79.9711 74.2095 79.9847 73.6266 80.0254C74.2095 79.9982 74.7924 79.9847 75.3889 79.9847C77.0293 79.9847 78.6154 80.0931 80.188 80.3236H80.2016L80.188 80.31ZM71.8778 80.1609C71.4575 80.2016 71.0237 80.2558 70.6034 80.3236C71.0508 80.2558 71.5117 80.2016 71.9727 80.1609H71.8778ZM70.1696 80.3778C69.8171 80.4185 69.4647 80.4727 69.1257 80.5541C69.302 80.527 69.4782 80.4863 69.6545 80.4727C69.9663 80.4185 70.2781 80.3643 70.6034 80.3236C70.4543 80.3372 70.3187 80.3643 70.1696 80.3778ZM68.475 80.6761C68.0954 80.7439 67.7294 80.8252 67.3634 80.9337C67.6481 80.8659 67.9327 80.7981 68.2174 80.7439C68.3394 80.7167 68.4615 80.6896 68.5835 80.6625C68.5564 80.6625 68.5157 80.6761 68.475 80.6761ZM65.1943 81.5166C62.6863 82.2758 60.3003 83.3332 58.077 84.6346C57.6839 84.8651 57.3043 85.0956 56.9247 85.3531C56.5722 85.5836 56.2197 85.8141 55.8673 86.0581C55.9893 85.9903 56.1113 85.909 56.2333 85.8276C56.5993 85.5836 56.9789 85.3396 57.3585 85.0956C57.4398 85.0413 57.5347 84.9871 57.6161 84.9329C58.1583 84.6075 58.7142 84.2822 59.2836 83.9839C59.6903 83.767 60.1105 83.5637 60.5308 83.3603C60.829 83.2112 61.1273 83.0756 61.4391 82.9536C61.4933 82.9129 61.5475 82.8858 61.6153 82.8587C61.6289 82.8452 61.656 82.8316 61.6831 82.8452C61.9271 82.7231 62.1847 82.6147 62.4423 82.5198C63.1472 82.2215 63.8522 81.964 64.5842 81.7335C64.896 81.6251 65.2078 81.5302 65.5196 81.4353C65.6823 81.381 65.8586 81.3268 66.0348 81.2726C65.7501 81.3404 65.4654 81.4217 65.1943 81.5166ZM53.8473 87.5764C53.8473 87.5764 53.9151 87.5222 53.9558 87.5087C53.9693 87.4816 53.9964 87.4544 54.0371 87.4409C54.0642 87.4273 54.0778 87.4002 54.1049 87.3731C54.0235 87.4273 53.9286 87.5087 53.8473 87.5764ZM52.0849 99.1403H52.0714C52.5594 101.865 52.817 104.658 52.817 107.518V107.749C52.817 108.372 52.8034 108.983 52.7763 109.606H52.7899C52.817 108.983 52.8306 108.372 52.8306 107.762V107.532C52.8306 104.658 52.573 101.865 52.0849 99.1403ZM51.6782 97.1339C51.5698 96.6323 51.4478 96.1308 51.2986 95.6427C51.4478 96.185 51.5833 96.7408 51.7053 97.2966C51.7053 97.2424 51.6918 97.1882 51.6782 97.1339ZM51.1495 89.9895C51.5291 89.6235 51.9358 89.2439 52.3425 88.8779C51.9358 89.2304 51.5291 89.61 51.1495 89.9895ZM49.9294 91.2639H49.943C50.3361 90.8436 50.7428 90.4234 51.1495 90.0031C50.7293 90.3963 50.3226 90.8301 49.9294 91.2639ZM50.6072 93.2025L50.5937 93.1889C50.6615 93.3652 50.7157 93.555 50.7699 93.7448C50.7157 93.555 50.6615 93.3787 50.6072 93.2025Z" fill="#FEFEFE"/>
<path d="M80.3103 67.743C78.697 67.5667 77.0567 67.4854 75.3892 67.4854C63.1881 67.4854 52.0716 72.1489 43.7342 79.8084C39.0978 73.491 32.916 68.3937 25.7309 65.0587C25.3242 64.8689 24.9175 64.6927 24.5108 64.5029C24.8362 64.3131 25.148 64.1369 25.4733 63.9471C32.7262 59.8529 41.1042 57.5212 50.0246 57.5212C61.3987 57.5212 71.9051 61.3306 80.3103 67.743Z" fill="#FEFEFE"/>
<path d="M40.3313 107.532V107.817C36.3456 110.026 33.6478 114.283 33.6478 119.164C33.6478 121.441 34.2307 123.583 35.2882 125.454C34.1765 127.271 32.8886 128.979 31.4787 130.551C26.6796 135.852 20.2538 139.648 12.9873 141.139C4.90754 132.259 0 120.465 0 107.532C0 97.2153 3.1316 87.6172 8.48651 79.6594C9.88286 80.1745 11.4012 80.4592 12.9873 80.4592C16.363 80.4592 19.4403 79.1713 21.745 77.0429C27.4117 79.9712 32.1701 84.4313 35.4373 89.8811C38.5553 95.0462 40.3313 101.079 40.3313 107.532Z" fill="#FEFEFE"/>
<path d="M97.2017 124.166C93.7176 134.049 87.2239 142.495 78.8188 148.419H78.8052C72.3387 153.001 64.7469 156.065 56.518 157.136C54.3896 157.421 52.2205 157.556 50.0243 157.556C47.1638 157.556 44.3711 157.312 41.6462 156.851C37.0641 156.079 32.6852 154.682 28.6182 152.757C27.2083 152.093 25.8391 151.361 24.497 150.561C25.9069 149.951 27.2761 149.273 28.6182 148.541C31.8989 146.738 34.9356 144.542 37.6741 142.02C40.8464 139.119 43.5984 135.784 45.8624 132.11C45.9302 132.124 45.9979 132.124 46.0657 132.124C46.2013 132.124 46.3369 132.124 46.486 132.124H46.6351C53.4406 132.124 59.0395 126.864 59.5682 120.18C64.2995 117.713 69.6815 116.317 75.3889 116.317C83.6856 116.317 91.2774 119.259 97.2017 124.152V124.166Z" fill="#FEFEFE"/>
<path d="M100.021 107.518C100.021 108.603 99.9806 109.66 99.9128 110.731C99.4654 110.46 99.0181 110.203 98.5707 109.945H98.5571C98.0962 109.688 97.6353 109.43 97.1743 109.186C96.7134 108.942 96.2525 108.698 95.778 108.467H95.7644C95.29 108.237 94.8155 108.02 94.341 107.803H94.3274C93.6632 107.518 92.9853 107.234 92.2939 106.963C91.9957 106.841 91.6974 106.732 91.3992 106.61C91.3992 106.61 91.3856 106.624 91.3856 106.61C90.884 106.434 90.3824 106.258 89.8808 106.095C85.3122 104.604 80.4318 103.804 75.3751 103.804C75.226 103.804 75.0769 103.804 74.9278 103.817C74.7786 103.817 74.6295 103.817 74.4804 103.831C73.6263 103.831 72.7858 103.872 71.9588 103.926C71.8775 103.939 71.7961 103.939 71.7148 103.953C71.5521 103.953 71.3759 103.967 71.2132 103.994C71.0099 103.994 70.7929 104.021 70.5896 104.048C70.4811 104.061 70.3727 104.075 70.2642 104.089C70.1558 104.102 70.0473 104.102 69.9524 104.129H69.8982C69.8169 104.129 69.7355 104.143 69.6542 104.156C69.5186 104.17 69.3831 104.184 69.261 104.211C68.8679 104.251 68.5019 104.306 68.1223 104.373H68.1087C67.7156 104.428 67.3224 104.495 66.9293 104.577C66.5361 104.631 66.143 104.712 65.7634 104.807C64.8687 104.983 63.9875 105.187 63.1198 105.444C62.5098 105.593 61.8997 105.77 61.3032 105.973C61.0457 106.041 60.8016 106.122 60.5441 106.217C60.2729 106.298 59.9882 106.393 59.7171 106.488C59.5815 106.542 59.446 106.583 59.3104 106.637C59.2968 106.637 59.2833 106.651 59.2697 106.651C58.8495 106.8 58.4428 106.963 58.0225 107.125C57.2091 107.451 56.3957 107.79 55.5959 108.169C55.1892 108.359 54.7825 108.549 54.3893 108.752C53.847 109.023 53.3183 109.308 52.7896 109.593C52.8167 108.983 52.8303 108.373 52.8303 107.762V107.532C52.8303 104.658 52.5727 101.865 52.0847 99.1404C52.0711 99.0862 52.0711 99.0319 52.044 98.9777C51.9491 98.4219 51.8406 97.8525 51.7051 97.2967C51.7051 97.2424 51.6915 97.1882 51.678 97.134C51.5695 96.6324 51.4475 96.1308 51.2984 95.6428C51.2713 95.4665 51.2306 95.3038 51.1764 95.1412C51.1357 95.0056 51.095 94.8565 51.0544 94.7209C51.0408 94.6938 51.0408 94.6667 51.0272 94.6396C51.0272 94.6124 51.0272 94.5989 51.0137 94.5853C51.0001 94.5311 50.9866 94.4769 50.9595 94.4227C50.9052 94.1922 50.8374 93.9617 50.7697 93.7448C50.7154 93.555 50.6612 93.3788 50.607 93.2025C50.4036 92.5383 50.1732 91.9011 49.9427 91.2775C50.3358 90.8437 50.7425 90.4234 51.1493 90.0032C51.5424 89.6236 51.9355 89.244 52.3422 88.8779C52.4371 88.783 52.532 88.7017 52.6269 88.6204C52.9387 88.3357 53.2641 88.0645 53.5895 87.7934C53.6572 87.7392 53.725 87.685 53.8064 87.6172L53.847 87.5765C53.847 87.5765 53.9148 87.5223 53.9555 87.5087C53.9691 87.4816 53.9962 87.4545 54.0368 87.4409C54.0639 87.4274 54.0775 87.4003 54.1046 87.3731C54.1317 87.3596 54.1724 87.3325 54.1995 87.3054C54.2673 87.2511 54.3351 87.1969 54.4029 87.1562C54.6198 86.9665 54.8502 86.7902 55.0943 86.6275L55.1349 86.5869C55.1349 86.5869 55.2434 86.5191 55.2976 86.4784C55.5959 86.2615 55.9077 86.0446 56.233 85.8277C56.5991 85.5837 56.9786 85.3396 57.3582 85.0956C57.4396 85.0414 57.5345 84.9872 57.6158 84.9329C58.1581 84.6076 58.7139 84.2822 59.2833 83.984C59.69 83.7671 60.1102 83.5637 60.5305 83.3604C60.8288 83.2112 61.127 83.0757 61.4388 82.9537C61.493 82.913 61.5473 82.8859 61.615 82.8588C61.6286 82.8452 61.6557 82.8317 61.6828 82.8452C61.9268 82.7232 62.1844 82.6147 62.442 82.5198C63.147 82.2216 63.8519 81.964 64.584 81.7336C64.8958 81.6251 65.2076 81.5302 65.5194 81.4353C65.6821 81.3811 65.8583 81.3269 66.0345 81.2726C66.2108 81.2184 66.387 81.1777 66.5633 81.1371C66.8344 81.0557 67.092 80.9879 67.3631 80.9337C67.6478 80.8659 67.9325 80.7981 68.2172 80.7439C68.3392 80.7168 68.4612 80.6897 68.5832 80.6626C68.6103 80.649 68.6374 80.649 68.6645 80.649C68.8272 80.6083 68.9764 80.5812 69.1255 80.5541C69.3017 80.527 69.4779 80.4863 69.6542 80.4728C69.966 80.4186 70.2778 80.3643 70.6032 80.3237C71.0505 80.2559 71.5115 80.2016 71.9724 80.161C72.0944 80.1474 72.1893 80.1339 72.2977 80.1339C72.3384 80.1203 72.3655 80.1203 72.4062 80.1203C72.4469 80.1203 72.474 80.1203 72.5147 80.1203C72.8807 80.0932 73.2467 80.0661 73.6127 80.039H73.6263C74.2092 80.0119 74.7922 79.9983 75.3887 79.9983C77.029 79.9983 78.6152 80.1067 80.1878 80.3372H80.2013C80.3233 80.6219 80.4453 80.9066 80.5809 81.1913C80.5809 81.1913 80.5945 81.1913 80.5945 81.2048C80.7436 81.4895 80.8927 81.7607 81.0418 82.0182H81.0554C81.2181 82.3029 81.3808 82.5605 81.5706 82.8181C81.7468 83.0757 81.923 83.3197 82.1264 83.5637C82.1264 83.5637 82.1399 83.5637 82.1399 83.5773C82.3297 83.8077 82.5331 84.0518 82.7635 84.2687C83.1838 84.7431 83.6447 85.1634 84.1328 85.543C84.1328 85.543 84.1328 85.543 84.1463 85.543C84.3903 85.7328 84.6344 85.9226 84.8919 86.0853C84.8919 86.0988 84.9055 86.0988 84.9055 86.0988C85.1631 86.2751 85.4207 86.4377 85.6918 86.5869H85.7053C86.2476 86.9258 86.8034 87.1969 87.3999 87.4274C87.3999 87.4274 87.3999 87.4409 87.4135 87.4409C87.5626 87.4952 87.7118 87.5494 87.8609 87.5901C87.9287 87.6307 88.01 87.6443 88.0778 87.6714C88.6336 87.8748 89.2165 88.0239 89.813 88.1188C89.935 88.1459 90.0706 88.173 90.1926 88.1866H90.2468C90.3689 88.2137 90.4773 88.2272 90.5993 88.2272C90.6942 88.2543 90.8027 88.2679 90.8976 88.2679C91.006 88.295 91.1009 88.295 91.2094 88.3086C91.5347 88.3357 91.8737 88.3492 92.199 88.3492C93.514 88.3492 94.7748 88.1594 95.9678 87.7934C96.0762 88.0645 96.1983 88.3221 96.3067 88.5797C96.3474 88.6882 96.3881 88.8102 96.4287 88.9186H96.4423C96.7405 89.6913 97.0252 90.4641 97.2964 91.2368C99.0587 96.3342 100.008 101.811 100.008 107.505L100.021 107.518Z" fill="#FEFEFE"/>
<path d="M58.0228 107.125C58.443 106.963 58.8497 106.8 59.27 106.651C59.0666 106.719 58.8633 106.8 58.6599 106.895C58.443 106.963 58.2397 107.044 58.0228 107.125Z" fill="#FEFEFE"/>
<path d="M65.1944 81.5166C65.3028 81.4895 65.4113 81.4624 65.5198 81.4353C65.2079 81.5302 64.8961 81.6251 64.5843 81.7335C64.7877 81.6522 64.991 81.5844 65.1944 81.5166Z" fill="#FEFEFE"/>
<path d="M68.4747 80.6761C68.4747 80.6761 68.5558 80.6625 68.5828 80.6625C68.4612 80.6896 68.3395 80.7166 68.2178 80.7437C68.3124 80.7166 68.3935 80.7031 68.4747 80.6761Z" fill="#FEFEFE"/>
<path d="M70.1696 80.3779C70.3187 80.3643 70.4543 80.3372 70.6034 80.3236C70.2781 80.3643 69.9663 80.4185 69.6544 80.4728C69.8171 80.4321 69.9934 80.405 70.1696 80.3779Z" fill="#FEFEFE"/>
<path d="M71.973 80.1609C71.512 80.2016 71.0511 80.2558 70.6037 80.3236C71.024 80.2558 71.4578 80.2016 71.8781 80.1609H71.973Z" fill="#FEFEFE"/>
<path d="M177.135 82.4833C177.135 73.5515 182.944 67.1403 191.985 67.1403C197.793 67.1403 201.629 69.4418 201.629 72.6747C201.629 74.757 200.15 76.3461 198.067 76.3461C196.478 76.3461 194.451 75.031 191.985 75.031C188.478 75.031 186.012 77.8804 186.012 82.3189C186.012 86.8122 188.369 89.6068 192.314 89.6068C194.834 89.6068 196.807 88.2917 198.232 88.2917C200.205 88.2917 201.574 89.9904 201.574 92.0178C201.574 95.0316 197.465 97.7714 191.437 97.7714C182.998 97.7714 177.135 91.6342 177.135 82.4833ZM205.115 61.5511C205.115 57.3318 206.485 55.2495 209.444 55.2495C212.348 55.2495 213.718 57.3318 213.718 61.5511V91.1411C213.718 95.3604 212.403 97.4427 209.444 97.4427C206.485 97.4427 205.115 95.3604 205.115 91.1411V61.5511ZM228.808 91.1411C228.808 95.3604 227.493 97.4427 224.534 97.4427C221.575 97.4427 220.205 95.3604 220.205 91.1411V73.7707C220.205 69.5513 221.575 67.5239 224.534 67.5239C227.438 67.5239 228.808 69.5513 228.808 73.7707V91.1411ZM219.548 60.236C219.548 57.4962 221.794 55.2495 224.534 55.2495C227.274 55.2495 229.466 57.4962 229.466 60.236C229.466 63.0306 227.274 65.2224 224.534 65.2224C221.739 65.2224 219.548 63.0306 219.548 60.236ZM253.433 102.813V95.47C251.46 97.1687 249.214 97.9906 246.584 97.9906C239.35 97.9906 233.323 91.1959 233.323 82.4833C233.323 73.6063 239.296 67.3047 246.529 67.3047C249.488 67.3047 251.899 68.3458 253.652 70.2637C254.693 68.4554 256.063 67.5239 257.762 67.5239C260.721 67.5239 262.036 69.5513 262.036 73.7707V102.813C262.036 107.032 260.666 109.114 257.762 109.114C254.803 109.114 253.433 107.032 253.433 102.813ZM253.543 82.5929C253.543 78.0996 251.077 75.3597 247.899 75.3597C244.666 75.3597 242.2 78.2092 242.2 82.5929C242.2 87.0862 244.611 89.9356 247.899 89.9356C251.186 89.9356 253.543 87.141 253.543 82.5929ZM267.821 85.2779V73.7707C267.821 69.5513 269.19 67.5239 272.149 67.5239C275.054 67.5239 276.424 69.5513 276.424 73.7707V83.5244C276.424 87.5793 277.355 89.826 280.862 89.826C284.369 89.826 285.301 87.5793 285.301 83.5244V73.7707C285.301 69.5513 286.671 67.5239 289.63 67.5239C292.589 67.5239 293.904 69.5513 293.904 73.7707V85.2779C293.904 93.5521 289.246 97.9358 280.862 97.9358C272.478 97.9358 267.821 93.5521 267.821 85.2779ZM306.896 84.8943C307.279 88.1273 309.691 90.0452 313.417 90.0452C317.746 90.0452 320.54 87.2505 322.513 87.2505C324.595 87.2505 325.965 88.6205 325.965 90.5931C325.965 93.9905 320.485 97.8262 312.978 97.8262C304.485 97.8262 298.019 91.3603 298.019 82.5381C298.019 73.7159 304.266 67.0855 312.54 67.0855C320.814 67.0855 326.623 73.6611 326.623 81.3873C326.623 84.3463 325.253 84.8943 322.348 84.8943H306.896ZM306.786 79.2503H318.184C317.965 76.2365 315.499 74.0994 312.595 74.0994C309.691 74.0994 307.389 76.0721 306.786 79.2503ZM361.9 58.0989C366.722 58.0989 370.503 58.9209 373.517 60.8387C378.613 64.0717 381.791 70.2089 381.791 77.168C381.791 89.278 374.667 97.0591 362.777 97.0591H354.667C349.954 97.0591 348.639 95.6892 348.639 91.4699V64.3457C348.639 60.0168 349.845 58.0989 354.776 58.0989H361.9ZM357.516 88.8396H361.571C368.695 88.8396 372.147 84.9491 372.147 77.1132C372.147 69.9349 368.585 66.3732 361.407 66.3732H357.516V88.8396ZM402.957 58.0989C407.176 58.0989 409.258 59.4688 409.258 62.2634C409.258 65.058 407.176 66.3732 402.957 66.3732H395.724V73.3323H401.97C406.19 73.3323 408.272 74.6474 408.272 77.442C408.272 80.2366 406.19 81.5517 401.97 81.5517H395.724V91.2507C395.724 95.47 394.299 97.5522 391.285 97.5522C388.271 97.5522 386.847 95.47 386.847 91.2507V64.3457C386.847 60.0168 388.052 58.0989 392.984 58.0989H402.957Z" fill="#FEFEFE"/>
<path d="M302.912 113.227H301.108C298.793 113.227 297.65 112.505 297.65 110.971C297.65 109.438 298.793 108.686 301.108 108.686H309.587C311.903 108.686 313.045 109.438 313.045 110.971C313.045 112.505 311.903 113.227 309.587 113.227H307.783V126.878C307.783 129.193 307.001 130.336 305.348 130.336C303.694 130.336 302.912 129.193 302.912 126.878V113.227ZM315.618 123.39C315.829 125.164 317.152 126.216 319.197 126.216C321.572 126.216 323.106 124.683 324.188 124.683C325.331 124.683 326.082 125.434 326.082 126.517C326.082 128.381 323.076 130.486 318.956 130.486C314.295 130.486 310.747 126.938 310.747 122.097C310.747 117.256 314.175 113.617 318.716 113.617C323.256 113.617 326.443 117.226 326.443 121.465C326.443 123.089 325.692 123.39 324.098 123.39H315.618ZM315.558 120.293H321.813C321.692 118.639 320.339 117.466 318.746 117.466C317.152 117.466 315.889 118.549 315.558 120.293ZM328.655 110.58C328.655 108.265 329.407 107.123 331.031 107.123C332.625 107.123 333.376 108.265 333.376 110.58V126.818C333.376 129.133 332.655 130.276 331.031 130.276C329.407 130.276 328.655 129.133 328.655 126.818V110.58ZM340.725 123.39C340.935 125.164 342.258 126.216 344.303 126.216C346.678 126.216 348.212 124.683 349.294 124.683C350.437 124.683 351.189 125.434 351.189 126.517C351.189 128.381 348.182 130.486 344.062 130.486C339.402 130.486 335.854 126.938 335.854 122.097C335.854 117.256 339.281 113.617 343.822 113.617C348.362 113.617 351.55 117.226 351.55 121.465C351.55 123.089 350.798 123.39 349.204 123.39H340.725ZM340.665 120.293H346.919C346.799 118.639 345.446 117.466 343.852 117.466C342.258 117.466 340.995 118.549 340.665 120.293ZM352.679 122.067C352.679 117.166 355.867 113.648 360.828 113.648C364.015 113.648 366.12 114.91 366.12 116.684C366.12 117.827 365.308 118.699 364.166 118.699C363.294 118.699 362.181 117.977 360.828 117.977C358.904 117.977 357.55 119.541 357.55 121.977C357.55 124.442 358.843 125.976 361.008 125.976C362.391 125.976 363.474 125.254 364.256 125.254C365.338 125.254 366.09 126.186 366.09 127.299C366.09 128.953 363.835 130.456 360.527 130.456C355.897 130.456 352.679 127.088 352.679 122.067ZM366.95 122.067C366.95 117.135 370.318 113.587 374.979 113.587C379.669 113.587 382.977 117.135 382.977 122.067C382.977 126.998 379.669 130.546 374.979 130.546C370.318 130.546 366.95 126.998 366.95 122.067ZM371.851 122.007C371.851 124.502 373.174 126.036 374.979 126.036C376.783 126.036 378.106 124.472 378.106 122.007C378.106 119.601 376.723 118.038 374.979 118.038C373.235 118.038 371.851 119.541 371.851 122.007ZM385.325 126.818V117.286C385.325 114.971 386.076 113.858 387.7 113.858C388.632 113.858 389.384 114.339 389.955 115.361C390.947 114.279 392.15 113.798 393.744 113.798C395.789 113.798 397.352 114.55 398.465 116.023C399.908 114.429 401.291 113.798 403.246 113.798C406.523 113.798 408.598 115.933 408.598 120.022V126.818C408.598 129.133 407.846 130.276 406.222 130.276C404.599 130.276 403.877 129.133 403.877 126.818V121.465C403.877 119.06 403.246 117.857 401.712 117.857C399.998 117.857 399.337 119.06 399.337 121.405V126.818C399.337 129.133 398.585 130.276 396.961 130.276C395.338 130.276 394.586 129.133 394.586 126.818V121.465C394.586 119.06 393.984 117.857 392.451 117.857C390.737 117.857 390.075 119.06 390.075 121.405V126.818C390.075 129.133 389.324 130.276 387.7 130.276C386.076 130.276 385.325 129.133 385.325 126.818Z" fill="#9CC748"/>
</svg>
