<svg width="411" height="162" viewBox="0 0 411 162" fill="none" xmlns="http://www.w3.org/2000/svg">
<path d="M159.549 107.075H149.178C148.446 55.0729 107.83 12.9348 57.1415 11.0811V0.498138C113.565 2.35188 158.831 49.235 159.549 107.075Z" fill="#6FCF27"/>
<path d="M141.559 107.075H131.907C131.188 64.8258 98.2862 30.5592 57.1415 28.7193V18.8557C103.614 20.7095 140.827 59.3614 141.559 107.075Z" fill="#6FCF27"/>
<path d="M122.526 107.075H111.545C110.813 76.2941 87.0341 51.3378 57.1415 49.5393V38.3062C93.1075 40.1323 121.807 70.1104 122.526 107.075Z" fill="#6FCF27"/>
<path d="M96.9035 92.4244C97.0526 92.8256 97.1882 93.2129 97.3102 93.6141H97.3238C97.1882 93.2129 97.0526 92.8117 96.9035 92.4244ZM96.3206 90.8888C96.3612 90.9995 96.4019 91.124 96.4426 91.2346H96.4561C96.4155 91.124 96.3612 90.9995 96.3206 90.8888ZM95.9681 90.0726C94.7751 90.4461 93.5008 90.6398 92.1858 90.6398C91.6435 90.6398 91.1148 90.6121 90.5996 90.5291C90.6945 90.5568 90.803 90.5706 90.8979 90.5706C91.0063 90.5983 91.1012 90.5983 91.2097 90.6121C91.535 90.6398 91.874 90.6536 92.1993 90.6536C93.5143 90.6536 94.7751 90.46 95.9681 90.0864V90.0726ZM87.4138 89.7129H87.4002C87.4002 89.7129 87.4002 89.7268 87.4138 89.7268C87.5629 89.7821 87.712 89.8374 87.8612 89.8789C87.712 89.8236 87.5629 89.7683 87.4138 89.7129ZM86.5326 89.3117C86.2479 89.1734 85.9768 89.0212 85.7056 88.8552C86.2479 89.2011 86.8037 89.4777 87.4002 89.7129C87.102 89.5884 86.8173 89.4501 86.5326 89.3117ZM84.9058 88.3434H84.8922L84.9058 88.3572C85.1634 88.537 85.421 88.703 85.6921 88.8552C85.421 88.6892 85.1634 88.5232 84.9058 88.3434ZM84.1466 87.7762H84.1331C84.1331 87.7762 84.1331 87.7762 84.1466 87.7762C84.3906 87.9699 84.6347 88.1635 84.8922 88.3295C84.6347 88.1359 84.3906 87.956 84.1466 87.7623V87.7762ZM81.5709 84.9956C81.7471 85.2584 81.9233 85.5074 82.1267 85.7564H82.1402C81.9504 85.5074 81.7606 85.2584 81.5709 84.9956ZM80.5948 83.3493C80.7439 83.6398 80.893 83.9165 81.0421 84.1794H81.0557C80.893 83.9027 80.7439 83.626 80.5948 83.3493ZM80.2016 82.464C80.3236 82.7545 80.4456 83.045 80.5812 83.3355H80.5948C80.4592 83.045 80.3236 82.7545 80.2016 82.464ZM80.1881 82.4501C78.6155 82.2149 77.0158 82.1043 75.3754 82.1043C74.7789 82.1043 74.2095 82.1181 73.6266 82.1596C74.2095 82.1319 74.7925 82.1181 75.389 82.1181C77.0293 82.1181 78.6155 82.2288 80.1881 82.464H80.2016L80.1881 82.4501ZM71.8778 82.298C71.4575 82.3395 71.0237 82.3948 70.6035 82.464C71.0508 82.3948 71.5118 82.3395 71.9727 82.298H71.8778ZM70.1696 82.5193C69.8172 82.5608 69.4647 82.6161 69.1258 82.6991C69.302 82.6715 69.4782 82.63 69.6545 82.6161C69.9663 82.5608 70.2781 82.5055 70.6035 82.464C70.4543 82.4778 70.3188 82.5055 70.1696 82.5193ZM68.475 82.8236C68.0955 82.8928 67.7294 82.9758 67.3634 83.0865C67.6481 83.0173 67.9328 82.9481 68.2175 82.8928C68.3395 82.8651 68.4615 82.8375 68.5835 82.8098C68.5564 82.8098 68.5157 82.8236 68.475 82.8236ZM65.1943 83.6813C62.6863 84.456 60.3003 85.5351 58.077 86.8631C57.6839 87.0983 57.3043 87.3335 56.9247 87.5963C56.5722 87.8315 56.2198 88.0667 55.8673 88.3157C55.9893 88.2465 56.1113 88.1635 56.2333 88.0805C56.5994 87.8315 56.9789 87.5825 57.3585 87.3335C57.4399 87.2782 57.5348 87.2228 57.6161 87.1675C58.1584 86.8355 58.7142 86.5035 59.2836 86.1991C59.6903 85.9778 60.1105 85.7703 60.5308 85.5628C60.8291 85.4106 61.1273 85.2722 61.4391 85.1477C61.4933 85.1062 61.5476 85.0786 61.6153 85.0509C61.6289 85.0371 61.656 85.0232 61.6831 85.0371C61.9271 84.9126 62.1847 84.8019 62.4423 84.705C63.1473 84.4007 63.8522 84.1379 64.5843 83.9027C64.8961 83.792 65.2079 83.6952 65.5197 83.5983C65.6824 83.543 65.8586 83.4877 66.0348 83.4323C65.7501 83.5015 65.4655 83.5845 65.1943 83.6813ZM53.8473 89.8651C53.8473 89.8651 53.9151 89.8098 53.9558 89.7959C53.9693 89.7683 53.9965 89.7406 54.0371 89.7268C54.0642 89.7129 54.0778 89.6853 54.1049 89.6576C54.0236 89.7129 53.9287 89.7959 53.8473 89.8651ZM52.085 101.665H52.0714C52.5595 104.446 52.817 107.296 52.817 110.215V110.45C52.817 111.086 52.8035 111.709 52.7764 112.345H52.7899C52.817 111.709 52.8306 111.086 52.8306 110.464V110.229C52.8306 107.296 52.573 104.446 52.085 101.665ZM51.6783 99.618C51.5698 99.1061 51.4478 98.5943 51.2987 98.0963C51.4478 98.6496 51.5834 99.2168 51.7054 99.784C51.7054 99.7287 51.6918 99.6733 51.6783 99.618ZM51.1496 92.3275C51.5291 91.954 51.9358 91.5667 52.3425 91.1931C51.9358 91.5528 51.5291 91.9402 51.1496 92.3275ZM49.9294 93.6279H49.943C50.3361 93.1991 50.7428 92.7702 51.1496 92.3414C50.7293 92.7425 50.3226 93.1852 49.9294 93.6279ZM50.6073 95.6062L50.5937 95.5923C50.6615 95.7722 50.7157 95.9659 50.77 96.1595C50.7157 95.9659 50.6615 95.786 50.6073 95.6062Z" fill="#FEFEFE"/>
<path d="M80.3103 69.6261C78.697 69.4463 77.0567 69.3633 75.3892 69.3633C63.1881 69.3633 52.0716 74.1221 43.7342 81.9383C39.0978 75.4917 32.916 70.2901 25.7309 66.887C25.3242 66.6933 24.9175 66.5135 24.5108 66.3198C24.8362 66.1261 25.148 65.9463 25.4733 65.7526C32.7262 61.5748 41.1042 59.1953 50.0246 59.1953C61.3987 59.1953 71.9051 63.0827 80.3103 69.6261Z" fill="#FEFEFE"/>
<path d="M40.3313 110.229V110.519C36.3456 112.774 33.6478 117.118 33.6478 122.098C33.6478 124.422 34.2307 126.608 35.2882 128.517C34.1765 130.371 32.8886 132.114 31.4787 133.719C26.6796 139.128 20.2538 143.001 12.9873 144.523C4.90754 135.462 0 123.426 0 110.229C0 99.7011 3.1316 89.9067 8.48651 81.7861C9.88286 82.3118 11.4012 82.6024 12.9873 82.6024C16.363 82.6024 19.4403 81.2881 21.745 79.1162C27.4117 82.1043 32.1701 86.6557 35.4373 92.2169C38.5553 97.4876 40.3313 103.644 40.3313 110.229Z" fill="#FEFEFE"/>
<path d="M97.2017 127.203C93.7176 137.288 87.2239 145.906 78.8188 151.952H78.8052C72.3386 156.628 64.7469 159.754 56.5179 160.847C54.3895 161.137 52.2205 161.276 50.0243 161.276C47.1638 161.276 44.3711 161.027 41.6462 160.556C37.064 159.768 32.6852 158.343 28.6182 156.379C27.2083 155.701 25.8391 154.954 24.4969 154.137C25.9068 153.515 27.2761 152.823 28.6182 152.076C31.8989 150.236 34.9356 147.995 37.6741 145.422C40.8464 142.462 43.5984 139.058 45.8624 135.309C45.9301 135.323 45.9979 135.323 46.0657 135.323C46.2013 135.323 46.3368 135.323 46.486 135.323H46.6351C53.4406 135.323 59.0395 129.956 59.5682 123.136C64.2995 120.618 69.6815 119.193 75.3889 119.193C83.6856 119.193 91.2774 122.195 97.2017 127.189V127.203Z" fill="#FEFEFE"/>
<path d="M100.021 110.215C100.021 111.322 99.9806 112.401 99.9128 113.493C99.4654 113.217 99.018 112.954 98.5707 112.691H98.5571C98.0962 112.428 97.6353 112.165 97.1743 111.916C96.7134 111.667 96.2525 111.418 95.778 111.183H95.7644C95.2899 110.948 94.8155 110.727 94.341 110.505H94.3274C93.6631 110.215 92.9853 109.924 92.2939 109.648C91.9957 109.523 91.6974 109.412 91.3992 109.288C91.3992 109.288 91.3856 109.302 91.3856 109.288C90.884 109.108 90.3824 108.928 89.8808 108.762C85.3122 107.241 80.4318 106.424 75.3751 106.424C75.226 106.424 75.0769 106.424 74.9277 106.438C74.7786 106.438 74.6295 106.438 74.4804 106.452C73.6263 106.452 72.7858 106.494 71.9588 106.549C71.8775 106.563 71.7961 106.563 71.7148 106.577C71.5521 106.577 71.3759 106.59 71.2132 106.618C71.0098 106.618 70.7929 106.646 70.5896 106.673C70.4811 106.687 70.3727 106.701 70.2642 106.715C70.1558 106.729 70.0473 106.729 69.9524 106.756H69.8982C69.8169 106.756 69.7355 106.77 69.6542 106.784C69.5186 106.798 69.383 106.812 69.261 106.839C68.8679 106.881 68.5018 106.936 68.1223 107.005H68.1087C67.7156 107.061 67.3224 107.13 66.9293 107.213C66.5361 107.268 66.143 107.351 65.7634 107.448C64.8686 107.628 63.9875 107.835 63.1198 108.098C62.5098 108.25 61.8997 108.43 61.3032 108.638C61.0456 108.707 60.8016 108.79 60.544 108.887C60.2729 108.97 59.9882 109.067 59.7171 109.163C59.5815 109.219 59.4459 109.26 59.3104 109.316C59.2968 109.316 59.2833 109.329 59.2697 109.329C58.8495 109.482 58.4428 109.648 58.0225 109.814C57.2091 110.146 56.3957 110.492 55.5958 110.879C55.1891 111.073 54.7824 111.266 54.3893 111.474C53.847 111.75 53.3183 112.041 52.7896 112.331C52.8167 111.709 52.8303 111.086 52.8303 110.464V110.229C52.8303 107.296 52.5727 104.446 52.0847 101.665C52.0711 101.61 52.0711 101.555 52.044 101.499C51.9491 100.932 51.8406 100.351 51.7051 99.7841C51.7051 99.7287 51.6915 99.6734 51.6779 99.6181C51.5695 99.1062 51.4475 98.5943 51.2984 98.0963C51.2712 97.9165 51.2306 97.7505 51.1763 97.5845C51.1357 97.4461 51.095 97.294 51.0543 97.1556C51.0408 97.1279 51.0408 97.1003 51.0272 97.0726C51.0272 97.0449 51.0272 97.0311 51.0137 97.0173C51.0001 96.9619 50.9866 96.9066 50.9594 96.8513C50.9052 96.6161 50.8374 96.3809 50.7696 96.1596C50.7154 95.9659 50.6612 95.7861 50.607 95.6062C50.4036 94.9284 50.1732 94.2782 49.9427 93.6418C50.3358 93.1991 50.7425 92.7703 51.1492 92.3414C51.5424 91.9541 51.9355 91.5667 52.3422 91.1932C52.4371 91.0964 52.532 91.0134 52.6269 90.9304C52.9387 90.6398 53.2641 90.3632 53.5894 90.0865C53.6572 90.0312 53.725 89.9758 53.8064 89.9066L53.847 89.8651C53.847 89.8651 53.9148 89.8098 53.9555 89.796C53.969 89.7683 53.9961 89.7406 54.0368 89.7268C54.0639 89.713 54.0775 89.6853 54.1046 89.6576C54.1317 89.6438 54.1724 89.6161 54.1995 89.5885C54.2673 89.5331 54.3351 89.4778 54.4029 89.4363C54.6198 89.2426 54.8502 89.0628 55.0942 88.8968L55.1349 88.8553C55.1349 88.8553 55.2434 88.7861 55.2976 88.7446C55.5958 88.5233 55.9076 88.3019 56.233 88.0806C56.599 87.8316 56.9786 87.5826 57.3582 87.3335C57.4396 87.2782 57.5345 87.2229 57.6158 87.1675C58.1581 86.8355 58.7139 86.5035 59.2833 86.1992C59.69 85.9778 60.1102 85.7703 60.5305 85.5628C60.8287 85.4106 61.127 85.2723 61.4388 85.1478C61.493 85.1063 61.5472 85.0786 61.615 85.0509C61.6286 85.0371 61.6557 85.0233 61.6828 85.0371C61.9268 84.9126 62.1844 84.8019 62.442 84.7051C63.1469 84.4008 63.8519 84.1379 64.5839 83.9027C64.8958 83.7921 65.2076 83.6952 65.5194 83.5984C65.682 83.543 65.8583 83.4877 66.0345 83.4324C66.2108 83.377 66.387 83.3355 66.5632 83.294C66.8344 83.211 67.0919 83.1419 67.3631 83.0865C67.6478 83.0174 67.9325 82.9482 68.2172 82.8929C68.3392 82.8652 68.4612 82.8375 68.5832 82.8099C68.6103 82.796 68.6374 82.796 68.6645 82.796C68.8272 82.7545 68.9763 82.7268 69.1255 82.6992C69.3017 82.6715 69.4779 82.63 69.6542 82.6162C69.966 82.5608 70.2778 82.5055 70.6031 82.464C71.0505 82.3948 71.5114 82.3395 71.9724 82.298C72.0944 82.2842 72.1893 82.2703 72.2977 82.2703C72.3384 82.2565 72.3655 82.2565 72.4062 82.2565C72.4469 82.2565 72.474 82.2565 72.5146 82.2565C72.8807 82.2288 73.2467 82.2012 73.6127 82.1735H73.6263C74.2092 82.1458 74.7922 82.132 75.3887 82.132C77.029 82.132 78.6152 82.2427 80.1877 82.4778H80.2013C80.3233 82.7683 80.4453 83.0589 80.5809 83.3494C80.5809 83.3494 80.5945 83.3494 80.5945 83.3632C80.7436 83.6537 80.8927 83.9304 81.0418 84.1932H81.0554C81.2181 84.4838 81.3807 84.7466 81.5705 85.0094C81.7468 85.2723 81.923 85.5213 82.1264 85.7703C82.1264 85.7703 82.1399 85.7703 82.1399 85.7841C82.3297 86.0193 82.5331 86.2683 82.7635 86.4897C83.1838 86.9739 83.6447 87.4027 84.1328 87.7901C84.1328 87.7901 84.1328 87.7901 84.1463 87.7901C84.3903 87.9837 84.6344 88.1774 84.8919 88.3434C84.8919 88.3572 84.9055 88.3572 84.9055 88.3572C85.1631 88.5371 85.4206 88.7031 85.6918 88.8553H85.7053C86.2476 89.2011 86.8034 89.4778 87.3999 89.713C87.3999 89.713 87.3999 89.7268 87.4135 89.7268C87.5626 89.7821 87.7117 89.8375 87.8609 89.879C87.9286 89.9205 88.01 89.9343 88.0778 89.962C88.6336 90.1695 89.2165 90.3217 89.813 90.4185C89.935 90.4462 90.0706 90.4738 90.1926 90.4877H90.2468C90.3688 90.5153 90.4773 90.5292 90.5993 90.5292C90.6942 90.5568 90.8027 90.5707 90.8976 90.5707C91.006 90.5983 91.1009 90.5983 91.2094 90.6122C91.5347 90.6398 91.8736 90.6537 92.199 90.6537C93.514 90.6537 94.7748 90.46 95.9678 90.0865C96.0762 90.3632 96.1982 90.626 96.3067 90.8888C96.3474 90.9995 96.388 91.124 96.4287 91.2347H96.4423C96.7405 92.0232 97.0252 92.8118 97.2963 93.6003C99.0587 98.8019 100.008 104.391 100.008 110.201L100.021 110.215Z" fill="#FEFEFE"/>
<path d="M58.0228 109.814C58.443 109.648 58.8497 109.482 59.27 109.329C59.0666 109.399 58.8633 109.482 58.6599 109.578C58.443 109.648 58.2397 109.731 58.0228 109.814Z" fill="#FEFEFE"/>
<path d="M65.1944 83.6814C65.3029 83.6537 65.4113 83.6261 65.5198 83.5984C65.208 83.6952 64.8962 83.7921 64.5844 83.9027C64.7877 83.8197 64.9911 83.7506 65.1944 83.6814Z" fill="#FEFEFE"/>
<path d="M68.4747 82.8237C68.4747 82.8237 68.5558 82.8098 68.5828 82.8098C68.4612 82.8376 68.3395 82.8654 68.2178 82.8932C68.3124 82.8654 68.3935 82.8515 68.4747 82.8237Z" fill="#FEFEFE"/>
<path d="M70.1696 82.5194C70.3187 82.5055 70.4543 82.4779 70.6034 82.464C70.278 82.5055 69.9662 82.5609 69.6544 82.6162C69.8171 82.5747 69.9933 82.547 70.1696 82.5194Z" fill="#FEFEFE"/>
<path d="M71.973 82.298C71.5121 82.3395 71.0511 82.3948 70.6038 82.464C71.024 82.3948 71.4578 82.3395 71.8781 82.298H71.973Z" fill="#FEFEFE"/>
<path d="M177.135 83.8617C177.135 74.93 182.944 68.5188 191.985 68.5188C197.794 68.5188 201.629 70.8202 201.629 74.0532C201.629 76.1355 200.15 77.7246 198.067 77.7246C196.478 77.7246 194.451 76.4095 191.985 76.4095C188.478 76.4095 186.012 79.2589 186.012 83.6974C186.012 88.1907 188.369 90.9853 192.314 90.9853C194.835 90.9853 196.807 89.6702 198.232 89.6702C200.205 89.6702 201.574 91.3688 201.574 93.3963C201.574 96.4101 197.465 99.1499 191.437 99.1499C182.999 99.1499 177.135 93.0127 177.135 83.8617ZM205.115 62.9296C205.115 58.7102 206.485 56.628 209.444 56.628C212.348 56.628 213.718 58.7102 213.718 62.9296V92.5196C213.718 96.7389 212.403 98.8211 209.444 98.8211C206.485 98.8211 205.115 96.7389 205.115 92.5196V62.9296ZM228.808 92.5196C228.808 96.7389 227.493 98.8211 224.534 98.8211C221.575 98.8211 220.205 96.7389 220.205 92.5196V75.1491C220.205 70.9298 221.575 68.9024 224.534 68.9024C227.438 68.9024 228.808 70.9298 228.808 75.1491V92.5196ZM219.548 61.6145C219.548 58.8746 221.794 56.628 224.534 56.628C227.274 56.628 229.466 58.8746 229.466 61.6145C229.466 64.4091 227.274 66.6009 224.534 66.6009C221.739 66.6009 219.548 64.4091 219.548 61.6145ZM253.433 104.191V96.8485C251.46 98.5472 249.214 99.3691 246.584 99.3691C239.351 99.3691 233.323 92.5744 233.323 83.8617C233.323 74.9847 239.296 68.6832 246.529 68.6832C249.488 68.6832 251.899 69.7243 253.652 71.6422C254.693 69.8339 256.063 68.9024 257.762 68.9024C260.721 68.9024 262.036 70.9298 262.036 75.1491V104.191C262.036 108.41 260.666 110.493 257.762 110.493C254.803 110.493 253.433 108.41 253.433 104.191ZM253.543 83.9713C253.543 79.478 251.077 76.7382 247.899 76.7382C244.666 76.7382 242.2 79.5876 242.2 83.9713C242.2 88.4646 244.611 91.314 247.899 91.314C251.187 91.314 253.543 88.5194 253.543 83.9713ZM267.821 86.6564V75.1491C267.821 70.9298 269.191 68.9024 272.15 68.9024C275.054 68.9024 276.424 70.9298 276.424 75.1491V84.9029C276.424 88.9578 277.355 91.2045 280.862 91.2045C284.369 91.2045 285.301 88.9578 285.301 84.9029V75.1491C285.301 70.9298 286.671 68.9024 289.63 68.9024C292.589 68.9024 293.904 70.9298 293.904 75.1491V86.6564C293.904 94.9306 289.246 99.3143 280.862 99.3143C272.478 99.3143 267.821 94.9306 267.821 86.6564ZM306.896 86.2728C307.28 89.5058 309.691 91.4236 313.417 91.4236C317.746 91.4236 320.54 88.629 322.513 88.629C324.595 88.629 325.965 89.9989 325.965 91.9716C325.965 95.369 320.485 99.2047 312.978 99.2047C304.485 99.2047 298.019 92.7387 298.019 83.9165C298.019 75.0943 304.266 68.464 312.54 68.464C320.814 68.464 326.623 75.0395 326.623 82.7658C326.623 85.7248 325.253 86.2728 322.348 86.2728H306.896ZM306.786 80.6288H318.184C317.965 77.615 315.499 75.4779 312.595 75.4779C309.691 75.4779 307.389 77.4506 306.786 80.6288ZM361.9 59.4774C366.722 59.4774 370.503 60.2993 373.517 62.2172C378.613 65.4502 381.791 71.5874 381.791 78.5465C381.791 90.6565 374.667 98.4376 362.777 98.4376H354.667C349.954 98.4376 348.639 97.0677 348.639 92.8483V65.7242C348.639 61.3953 349.845 59.4774 354.776 59.4774H361.9ZM357.516 90.2181H361.571C368.695 90.2181 372.147 86.3276 372.147 78.4917C372.147 71.3134 368.585 67.7516 361.407 67.7516H357.516V90.2181ZM402.957 59.4774C407.176 59.4774 409.258 60.8473 409.258 63.6419C409.258 66.4365 407.176 67.7516 402.957 67.7516H395.724V74.7108H401.97C406.19 74.7108 408.272 76.0259 408.272 78.8205C408.272 81.6151 406.19 82.9302 401.97 82.9302H395.724V92.6292C395.724 96.8485 394.299 98.9307 391.285 98.9307C388.271 98.9307 386.847 96.8485 386.847 92.6292V65.7242C386.847 61.3953 388.052 59.4774 392.984 59.4774H402.957Z" fill="#FEFEFE"/>
<path d="M302.912 115.771H301.108C298.793 115.771 297.65 115.049 297.65 113.515C297.65 111.982 298.793 111.23 301.108 111.23H309.587C311.903 111.23 313.045 111.982 313.045 113.515C313.045 115.049 311.903 115.771 309.587 115.771H307.783V129.422C307.783 131.737 307.001 132.88 305.348 132.88C303.694 132.88 302.912 131.737 302.912 129.422V115.771ZM315.619 125.934C315.829 127.708 317.152 128.76 319.197 128.76C321.572 128.76 323.106 127.227 324.188 127.227C325.331 127.227 326.083 127.979 326.083 129.061C326.083 130.925 323.076 133.03 318.956 133.03C314.296 133.03 310.747 129.482 310.747 124.641C310.747 119.8 314.175 116.161 318.716 116.161C323.256 116.161 326.443 119.77 326.443 124.009C326.443 125.633 325.692 125.934 324.098 125.934H315.619ZM315.558 122.837H321.813C321.692 121.183 320.339 120.01 318.746 120.01C317.152 120.01 315.889 121.093 315.558 122.837ZM328.656 113.125C328.656 110.809 329.407 109.667 331.031 109.667C332.625 109.667 333.376 110.809 333.376 113.125V129.362C333.376 131.677 332.655 132.82 331.031 132.82C329.407 132.82 328.656 131.677 328.656 129.362V113.125ZM340.725 125.934C340.935 127.708 342.258 128.76 344.303 128.76C346.678 128.76 348.212 127.227 349.294 127.227C350.437 127.227 351.189 127.979 351.189 129.061C351.189 130.925 348.182 133.03 344.062 133.03C339.402 133.03 335.854 129.482 335.854 124.641C335.854 119.8 339.282 116.161 343.822 116.161C348.362 116.161 351.55 119.77 351.55 124.009C351.55 125.633 350.798 125.934 349.204 125.934H340.725ZM340.665 122.837H346.919C346.799 121.183 345.446 120.01 343.852 120.01C342.258 120.01 340.995 121.093 340.665 122.837ZM352.679 124.611C352.679 119.71 355.867 116.192 360.828 116.192C364.015 116.192 366.12 117.454 366.12 119.229C366.12 120.371 365.308 121.243 364.166 121.243C363.294 121.243 362.181 120.521 360.828 120.521C358.904 120.521 357.55 122.085 357.55 124.521C357.55 126.986 358.843 128.52 361.008 128.52C362.392 128.52 363.474 127.798 364.256 127.798C365.338 127.798 366.09 128.73 366.09 129.843C366.09 131.497 363.835 133 360.527 133C355.897 133 352.679 129.632 352.679 124.611ZM366.95 124.611C366.95 119.68 370.318 116.131 374.979 116.131C379.669 116.131 382.977 119.68 382.977 124.611C382.977 129.542 379.669 133.09 374.979 133.09C370.318 133.09 366.95 129.542 366.95 124.611ZM371.851 124.551C371.851 127.046 373.175 128.58 374.979 128.58C376.783 128.58 378.106 127.016 378.106 124.551C378.106 122.145 376.723 120.582 374.979 120.582C373.235 120.582 371.851 122.085 371.851 124.551ZM385.325 129.362V119.83C385.325 117.515 386.076 116.402 387.7 116.402C388.632 116.402 389.384 116.883 389.955 117.905C390.948 116.823 392.15 116.342 393.744 116.342C395.789 116.342 397.352 117.094 398.465 118.567C399.908 116.973 401.291 116.342 403.246 116.342C406.523 116.342 408.598 118.477 408.598 122.566V129.362C408.598 131.677 407.846 132.82 406.222 132.82C404.599 132.82 403.877 131.677 403.877 129.362V124.009C403.877 121.604 403.246 120.401 401.712 120.401C399.998 120.401 399.337 121.604 399.337 123.949V129.362C399.337 131.677 398.585 132.82 396.961 132.82C395.338 132.82 394.586 131.677 394.586 129.362V124.009C394.586 121.604 393.984 120.401 392.451 120.401C390.737 120.401 390.076 121.604 390.076 123.949V129.362C390.076 131.677 389.324 132.82 387.7 132.82C386.076 132.82 385.325 131.677 385.325 129.362Z" fill="#6FCF27"/>
</svg>
