<svg width="155" height="155" viewBox="0 0 155 155" fill="none" xmlns="http://www.w3.org/2000/svg">
<circle cx="77.5" cy="77.5" r="77.5" fill="#6FCF27"/>
<path d="M88.9998 74.1021C88.9998 78.6019 82.2235 85.2975 77.001 89.2873C71.7786 85.2975 65.0023 78.6079 65.0023 74.1021C64.7743 68.0844 73.7404 66.9025 74.0014 73.3641V75.0021C74.0014 75.7977 74.3174 76.5607 74.8799 77.1233C75.4425 77.6858 76.2055 78.0019 77.001 78.0019C77.7966 78.0019 78.5596 77.6858 79.1221 77.1233C79.6847 76.5607 80.0007 75.7977 80.0007 75.0021V73.3641C80.2617 66.9025 89.2278 68.0844 88.9998 74.1021ZM112.997 79.0219V99.0008C112.992 102.977 111.41 106.789 108.598 109.601C105.787 112.412 101.975 113.994 97.9989 114H80.2527C59.2489 114 42.4146 99.6248 41.0918 80.5668C40.7239 75.4243 41.4649 70.2628 43.2646 65.4315C45.0643 60.6002 47.8807 56.2119 51.5232 52.5635C55.1658 48.915 59.5495 46.0917 64.3777 44.2843C69.2059 42.477 74.366 41.7279 79.5088 42.0878C88.7223 42.8787 97.2956 47.1259 103.507 53.9767C109.719 60.8275 113.109 69.7747 112.997 79.0219ZM94.9992 74.1021C95.0601 71.9915 94.4953 69.9101 93.3758 68.1198C92.2564 66.3296 90.6323 64.9106 88.7081 64.0414C86.7839 63.1723 84.6456 62.8919 82.5624 63.2355C80.4792 63.5792 78.5442 64.5315 77.001 65.9725C75.4579 64.5315 73.5229 63.5792 71.4397 63.2355C69.3565 62.8919 67.2182 63.1723 65.294 64.0414C63.3698 64.9106 61.7457 66.3296 60.6263 68.1198C59.5068 69.9101 58.942 71.9915 59.0029 74.1021C59.0029 83.8696 73.6234 94.309 75.2912 95.467C75.7934 95.8153 76.3899 96.002 77.001 96.002C77.6122 96.002 78.2087 95.8153 78.7109 95.467C80.3787 94.309 94.9992 83.8696 94.9992 74.1021Z" fill="white"/>
</svg>
