<svg width="155" height="155" viewBox="0 0 155 155" fill="none" xmlns="http://www.w3.org/2000/svg">
<circle cx="77.5" cy="77.5" r="77.5" fill="#6FCF27"/>
<path d="M70.6468 102.697C70.6468 101.451 71.0172 100.232 71.7111 99.1959C72.405 98.1595 73.3913 97.3517 74.5452 96.8746C75.6991 96.3976 76.9689 96.2728 78.1939 96.516C79.4189 96.7592 80.5441 97.3594 81.4273 98.2409C82.3105 99.1223 82.9119 100.245 83.1556 101.468C83.3993 102.69 83.2742 103.958 82.7963 105.109C82.3183 106.261 81.5089 107.245 80.4704 107.938C79.4318 108.63 78.2109 109 76.9619 109C75.287 109 73.6808 108.336 72.4964 107.154C71.3121 105.972 70.6468 104.369 70.6468 102.697ZM99.2857 89.3234C100.47 88.1415 101.135 86.5387 101.135 84.8675C101.135 83.1963 100.47 81.5935 99.2857 80.4116C93.3644 74.5039 85.3345 71.1851 76.9619 71.1851C68.5892 71.1851 60.5593 74.5039 54.6381 80.4116C53.4877 81.6003 52.8512 83.1923 52.8656 84.8448C52.88 86.4973 53.5441 88.0781 54.715 89.2466C55.8859 90.4152 57.4698 91.078 59.1256 91.0924C60.7814 91.1067 62.3766 90.4715 63.5676 89.3234C67.1778 85.8888 71.9742 83.9728 76.9619 83.9728C81.9496 83.9728 86.7459 85.8888 90.3562 89.3234C91.5404 90.505 93.1464 91.1687 94.8209 91.1687C96.4954 91.1687 98.1014 90.505 99.2857 89.3234ZM117.151 71.4998C118.335 70.3179 119 68.7151 119 67.0439C119 65.3727 118.335 63.7699 117.151 62.588C106.484 51.9656 92.0307 46 76.9619 46C61.8931 46 47.4397 51.9656 36.7727 62.588C35.6224 63.7766 34.9859 65.3687 35.0002 67.0212C35.0146 68.6737 35.6788 70.2545 36.8496 71.423C38.0205 72.5916 39.6044 73.2544 41.2602 73.2687C42.916 73.2831 44.5112 72.6478 45.7022 71.4998C54.0015 63.2421 65.2427 58.605 76.9619 58.605C88.6811 58.605 99.9222 63.2421 108.222 71.4998C109.406 72.6813 111.012 73.3451 112.686 73.3451C114.361 73.3451 115.967 72.6813 117.151 71.4998Z" fill="white"/>
</svg>
